<svg width="32" height="32" viewBox="0 0 32 32" fill="none" xmlns="http://www.w3.org/2000/svg">
<rect width="32" height="32" fill="#282B2E"/>
<path fill-rule="evenodd" clip-rule="evenodd" d="M15.9998 2.6665C23.3638 2.6665 29.3332 8.63584 29.3332 15.9998C29.3332 23.3638 23.3638 29.3332 15.9998 29.3332C8.63584 29.3332 2.6665 23.3638 2.6665 15.9998C2.6665 8.63584 8.63584 2.6665 15.9998 2.6665ZM18.6452 18.9998C17.9385 19.6238 17.0145 19.9998 15.9998 19.9998C15.0257 19.9997 14.0851 19.6442 13.3545 18.9998C13.0893 18.7657 12.7419 18.6466 12.3889 18.6686C12.0358 18.6906 11.7059 18.852 11.4718 19.1172C11.2377 19.3824 11.1186 19.7297 11.1406 20.0828C11.1626 20.4359 11.324 20.7657 11.5892 20.9998C12.8073 22.0741 14.3757 22.6668 15.9998 22.6665C17.6244 22.6692 19.1937 22.0763 20.4105 20.9998C20.6757 20.7657 20.8371 20.4359 20.8591 20.0828C20.8811 19.7297 20.7619 19.3824 20.5278 19.1172C20.2937 18.852 19.9639 18.6906 19.6108 18.6686C19.2577 18.6466 18.9104 18.7657 18.6452 18.9998ZM11.3332 10.6665C9.88384 10.6665 8.7225 11.5732 8.14117 12.7358C7.98835 13.04 7.95766 13.3911 8.05539 13.7172C8.15313 14.0433 8.37189 14.3197 8.66683 14.4896C8.96178 14.6596 9.31057 14.7103 9.64171 14.6314C9.97285 14.5525 10.2613 14.3499 10.4478 14.0652L10.5252 13.9305C10.7412 13.4985 11.0718 13.3332 11.3332 13.3332C11.5598 13.3332 11.8425 13.4598 12.0545 13.7812L12.1412 13.9305C12.3012 14.2438 12.5786 14.4812 12.9129 14.5908C13.2472 14.7005 13.6113 14.6736 13.9259 14.516C14.2404 14.3583 14.4799 14.0828 14.5922 13.7493C14.7044 13.4159 14.6804 13.0516 14.5252 12.7358C13.9425 11.5732 12.7825 10.6665 11.3332 10.6665ZM20.6665 10.6665C19.2172 10.6665 18.0572 11.5732 17.4745 12.7358C17.3217 13.04 17.291 13.3911 17.3887 13.7172C17.4865 14.0433 17.7052 14.3197 18.0002 14.4896C18.2951 14.6596 18.6439 14.7103 18.975 14.6314C19.3062 14.5525 19.5946 14.3499 19.7812 14.0652L19.8585 13.9305C20.0745 13.4985 20.4052 13.3332 20.6665 13.3332C20.8932 13.3332 21.1758 13.4598 21.3878 13.7812L21.4745 13.9305C21.5521 14.0884 21.6602 14.2294 21.7926 14.3454C21.925 14.4613 22.079 14.5499 22.2457 14.6061C22.4125 14.6622 22.5887 14.6848 22.7643 14.6725C22.9398 14.6602 23.1112 14.6133 23.2685 14.5344C23.4258 14.4556 23.566 14.3464 23.6809 14.2132C23.7958 14.0799 23.8832 13.9252 23.938 13.758C23.9929 13.5908 24.0141 13.4144 24.0004 13.239C23.9868 13.0635 23.9386 12.8925 23.8585 12.7358C23.2772 11.5732 22.1158 10.6665 20.6665 10.6665Z" fill="white"/>
</svg>
