<svg width="14" height="14" viewBox="0 0 14 14" fill="none" xmlns="http://www.w3.org/2000/svg">
<path d="M7 13C7.78807 13.001 8.56857 12.8462 9.29665 12.5446C10.0247 12.243 10.686 11.8005 11.2426 11.2426C11.8005 10.686 12.243 10.0247 12.5446 9.29665C12.8462 8.56857 13.001 7.78807 13 7C13.001 6.21193 12.8462 5.43143 12.5446 4.70335C12.243 3.97527 11.8005 3.31395 11.2426 2.7574C10.686 2.19945 10.0247 1.75697 9.29665 1.45538C8.56857 1.15379 7.78807 0.999033 7 1C6.21193 0.999033 5.43143 1.15379 4.70335 1.45538C3.97527 1.75697 3.31395 2.19945 2.7574 2.7574C2.19945 3.31395 1.75697 3.97527 1.45538 4.70335C1.15379 5.43143 0.999033 6.21193 1 7C0.999033 7.78807 1.15379 8.56857 1.45538 9.29665C1.75697 10.0247 2.19945 10.686 2.7574 11.2426C3.31395 11.8005 3.97527 12.243 4.70335 12.5446C5.43143 12.8462 6.21193 13.001 7 13Z" fill="#FF8500" stroke="#FFCE99" stroke-width="1.2" stroke-linejoin="round"/>
<path d="M4.6001 7.00019L6.4001 8.80019L10.0001 5.2002" stroke="#FFCE99" stroke-width="1.2" stroke-linecap="round" stroke-linejoin="round"/>
</svg>
